<svg xmlns="http://www.w3.org/2000/svg" x="0px" y="0px"
width="32" height="32"
viewBox="0 0 226 226"
style=" fill:#000000;"><g fill="none" fill-rule="nonzero" stroke="none" stroke-width="1" stroke-linecap="butt" stroke-linejoin="miter" stroke-miterlimit="10" stroke-dasharray="" stroke-dashoffset="0" font-family="none" font-weight="none" font-size="none" text-anchor="none" style="mix-blend-mode: normal"><path d="M0,226v-226h226v226z" fill="none"></path><g fill="#27b4fd"><path d="M113,21.1875c-50.62378,0 -91.8125,41.18872 -91.8125,91.8125c0,50.62378 41.18872,91.8125 91.8125,91.8125c50.62378,0 91.8125,-41.18872 91.8125,-91.8125c0,-50.62378 -41.18872,-91.8125 -91.8125,-91.8125zM113,35.3125c42.98194,0 77.6875,34.70557 77.6875,77.6875c0,42.98194 -34.70556,77.6875 -77.6875,77.6875c-42.98193,0 -77.6875,-34.70556 -77.6875,-77.6875c0,-42.98193 34.70557,-77.6875 77.6875,-77.6875zM113,56.5c-19.42187,0 -35.3125,15.89063 -35.3125,35.3125c0,10.7041 4.99341,20.22192 12.58008,26.70508c-15.89062,8.24878 -26.70508,24.85669 -26.70508,43.91992h14.125c0,-19.5874 15.7251,-35.3125 35.3125,-35.3125c19.58741,0 35.3125,15.7251 35.3125,35.3125h14.125c0,-19.06323 -10.81445,-35.67114 -26.70508,-43.91992c7.58667,-6.48316 12.58008,-16.00098 12.58008,-26.70508c0,-19.42187 -15.89062,-35.3125 -35.3125,-35.3125zM113,70.625c11.78003,0 21.1875,9.40747 21.1875,21.1875c0,11.78003 -9.40747,21.1875 -21.1875,21.1875c-11.78003,0 -21.1875,-9.40747 -21.1875,-21.1875c0,-11.78003 9.40747,-21.1875 21.1875,-21.1875z"></path></g></g></svg>
